<svg xmlns="http://www.w3.org/2000/svg" viewBox="0 0 821 638" width="821" height="638">
  <defs>
    <marker id="fk-arrow" markerWidth="8" markerHeight="8" refX="8" refY="4" orient="auto">
      <path d="M 0 0 L 8 4 L 0 8 z" fill="hsl(217 34% 60%)" />
    </marker>
    <style>
      text { font-family: ui-sans-serif, system-ui,
        'Segoe UI', Helvetica, Arial, sans-serif; }
      .box { fill: hsl(0 0% 100%);
        stroke: hsl(217 30% 88%); stroke-width: 1; }
      .head { fill: hsl(217 36% 46%); }
      .thead { fill: hsl(0 0% 100%); font-size: 12px;
        font-weight: 700; }
      .col, .pk, .fk, .type { font-size: 11px;
        dominant-baseline: middle; }
      .col { fill: hsl(217 45% 15%); }
      .pk { fill: hsl(217 45% 15%); font-weight: 700; }
      .fk { fill: hsl(217 38% 38%);
        font-style: italic; }
      .type { fill: hsl(217 12% 55%);
        text-anchor: end; }
      .edge { fill: none; stroke: hsl(217 34% 60%);
        stroke-width: 1.5; }
      .secondary-index { font-size: 24px; font-weight: 700;
        fill: hsl(217 36% 46%);
        dominant-baseline: middle; }
      .diamond, .sname, .skeys {
        dominant-baseline: middle; }
      .diamond { font-size: 11px; text-anchor: middle; }
      .diamond-pk { font-weight: 700; }
      .sbox { fill: hsl(0 0% 100%);
        stroke: hsl(217 30% 88%); stroke-width: 1; }
      .shead { fill: hsl(217 28% 62%); }
      .sthead { fill: hsl(0 0% 100%); font-size: 12px;
        font-weight: 700; }
      .sname { fill: hsl(217 45% 15%); font-size: 11px; }
      .skeys { fill: hsl(217 12% 55%); font-size: 11px;
        text-anchor: end; }
      .slink { fill: none; stroke: hsl(217 34% 60%);
        stroke-width: 1.5; }
    </style>
  </defs>
  <rect x="0" y="0" width="821" height="638" fill="hsl(217 30% 97%)" />
  <path class="slink" d="M 347 319 H 375" />
  <g class="table">
    <rect class="box" x="56" y="40" width="291" height="558" rx="6" />
    <rect class="head" x="56" y="40" width="291" height="26" rx="6" />
    <text class="thead" x="66" y="58">fa_message_pairs</text>
    <text class="pk" x="88" y="80">id</text>
    <text class="type" x="271" y="80">id</text>
    <text class="diamond diamond-pk" x="283" y="80" fill="hsl(217 45% 15%)">◆</text>
    <text class="diamond" x="295" y="80" fill="hsl(217 36% 46%)">◆</text>
    <text class="diamond" x="307" y="80" fill="hsl(173 42% 32%)">◆</text>
    <text class="col" x="88" y="108">operation_id</text>
    <text class="type" x="271" y="108">text</text>
    <text class="secondary-index" x="66" y="136">▸</text>
    <text class="col" x="88" y="136">path</text>
    <text class="type" x="271" y="136">text</text>
    <text class="diamond" x="295" y="136" fill="hsl(217 36% 46%)">◆</text>
    <text class="diamond" x="307" y="136" fill="hsl(173 42% 32%)">◆</text>
    <text class="diamond" x="319" y="136" fill="hsl(32 70% 42%)">◆</text>
    <text class="col" x="88" y="164">name</text>
    <text class="type" x="271" y="164">text</text>
    <text class="diamond" x="295" y="164" fill="hsl(217 36% 46%)">◆</text>
    <text class="diamond" x="319" y="164" fill="hsl(32 70% 42%)">◆</text>
    <text class="col" x="88" y="192">supersedes</text>
    <text class="type" x="271" y="192">id</text>
    <text class="diamond" x="319" y="192" fill="hsl(32 70% 42%)">◆</text>
    <text class="col" x="88" y="220">requester_identity_id</text>
    <text class="type" x="271" y="220">text</text>
    <text class="col" x="88" y="248">method</text>
    <text class="type" x="271" y="248">text</text>
    <text class="col" x="88" y="276">response_at</text>
    <text class="type" x="271" y="276">text</text>
    <text class="diamond" x="295" y="276" fill="hsl(217 36% 46%)">◆</text>
    <text class="diamond" x="307" y="276" fill="hsl(173 42% 32%)">◆</text>
    <text class="col" x="88" y="304">request</text>
    <text class="type" x="271" y="304">text</text>
    <text class="col" x="88" y="332">request_salt</text>
    <text class="type" x="271" y="332">text</text>
    <text class="col" x="88" y="360">request_hash</text>
    <text class="type" x="271" y="360">text</text>
    <text class="col" x="88" y="388">request_secrets</text>
    <text class="type" x="271" y="388">text</text>
    <text class="col" x="88" y="416">request_secrets_hash</text>
    <text class="type" x="271" y="416">text</text>
    <text class="col" x="88" y="444">response</text>
    <text class="type" x="271" y="444">text</text>
    <text class="diamond" x="331" y="444" fill="hsl(262 40% 46%)">◆</text>
    <text class="col" x="88" y="472">response_salt</text>
    <text class="type" x="271" y="472">text</text>
    <text class="col" x="88" y="500">response_hash</text>
    <text class="type" x="271" y="500">text</text>
    <text class="col" x="88" y="528">response_secrets</text>
    <text class="type" x="271" y="528">text</text>
    <text class="col" x="88" y="556">response_secrets_hash</text>
    <text class="type" x="271" y="556">text</text>
    <text class="col" x="88" y="584">pair_hash</text>
    <text class="type" x="271" y="584">text</text>
  </g>
  <g class="sidecar">
    <rect class="sbox" x="375" y="261" width="406" height="116" rx="6" />
    <rect class="shead" x="375" y="261" width="406" height="26" rx="6" />
    <text class="sthead" x="385" y="279">indexes</text>
    <text class="diamond diamond-pk" x="391" y="296" fill="hsl(217 45% 15%)">◆</text>
    <text class="sname" x="405" y="296">pk btree</text>
    <text class="skeys" x="771" y="296">id</text>
    <text class="diamond" x="391" y="314" fill="hsl(217 36% 46%)">◆</text>
    <text class="sname" x="405" y="314">document btree</text>
    <text class="skeys" x="771" y="314">path, name, response_at, id</text>
    <text class="diamond" x="391" y="332" fill="hsl(173 42% 32%)">◆</text>
    <text class="sname" x="405" y="332">collection btree</text>
    <text class="skeys" x="771" y="332">path, response_at, id</text>
    <text class="diamond" x="391" y="350" fill="hsl(32 70% 42%)">◆</text>
    <text class="sname" x="405" y="350">succession unique btree</text>
    <text class="skeys" x="771" y="350">path, name, supersedes</text>
    <text class="diamond" x="391" y="368" fill="hsl(262 40% 46%)">◆</text>
    <text class="sname" x="405" y="368">request_id btree</text>
    <text class="skeys" x="771" y="368">fa_request_id_of(response)</text>
  </g>
</svg>
